Coordinates
version=1
nRows=26
nColumns=18
inDegrees=yes

Units are S.I. units (second, meters, Newtons, ...)
If the header above contains a line with 'inDegrees', this indicates whether rotational values are in degrees (yes) or radians (no).

endheader
time	ground_thorax_rot_x	ground_thorax_rot_y	ground_thorax_rot_z	ground_thorax_tx	ground_thorax_ty	ground_thorax_tz	clav_prot	clav_elev	scapula_abduction	scapula_elevation	scapula_upward_rot	scapula_winging	plane_elv	shoulder_elv	axial_rot	elbow_flexion	pro_sup
      6.36000000	      1.55512427	     -6.56203811	    -10.18744446	      0.00000000	      0.00000000	      0.00000000	    -24.82976959	     -2.54989072	    -10.73739735	     -5.20719087	     22.74535737	      2.39976715	     40.87156678	     18.75962827	     -2.78048357	      0.00000000	     34.32000000
      6.37000000	      1.50377706	     -6.31120920	    -10.11259072	      0.00000000	      0.00000000	      0.00000000	    -24.91879477	     -2.61911432	    -11.04531298	     -5.20733506	     22.48651952	      2.48301522	     39.38868647	     18.14941654	     -2.27519898	      0.00000000	     34.32000000
      6.38000000	      1.35727707	     -6.19006767	    -10.11445039	      0.00000000	      0.00000000	      0.00000000	    -24.84258974	     -2.97563042	    -11.18029028	     -5.34829372	     21.94338115	      2.74017102	     37.21127911	     18.05025454	     -1.54413192	      0.00000000	     34.32000000
      6.39000000	      1.27043817	     -6.12657771	    -10.10267795	      0.00000000	      0.00000000	      0.00000000	    -24.77963769	     -3.21955995	    -11.28532529	     -5.43277988	     21.52326535	      2.92905900	     35.06042142	     17.87421746	     -0.74557907	      0.00000000	     34.32000000
      6.40000000	      1.32968797	     -6.04163795	    -10.10661027	      0.00000000	      0.00000000	      0.00000000	    -24.77752903	     -3.24207172	    -11.39052801	     -5.41025713	     21.34923379	      2.97913142	     33.76746461	     17.68942184	     -0.18163458	      0.00000000	     34.32000000
      6.41000000	      1.50576831	     -5.98063703	    -10.25046110	      0.00000000	      0.00000000	      0.00000000	    -24.84263508	     -3.22723154	    -11.53325967	     -5.39398030	     21.30843496	      2.98210729	     32.94178462	     17.66880135	      0.02965390	      0.00000000	     34.32000000
      6.42000000	      1.47236261	     -5.82841153	    -10.18659123	      0.00000000	      0.00000000	      0.00000000	    -24.88895855	     -3.24148726	    -11.79869905	     -5.34224424	     21.01998052	      3.05496997	     31.13905530	     17.51220623	      0.60110807	      0.00000000	     34.32000000
      6.43000000	      1.35723345	     -5.86715595	    -10.19948820	      0.00000000	      0.00000000	      0.00000000	    -24.80670124	     -3.40100180	    -11.76912759	     -5.40312807	     20.78486968	      3.17106693	     29.39079190	     17.23360076	      1.37995721	      0.00000000	     34.32000000
      6.44000000	      1.55868365	     -5.89196944	    -10.30411411	      0.00000000	      0.00000000	      0.00000000	    -24.85645339	     -3.39002792	    -11.87049840	     -5.39348672	     20.76516039	      3.17101882	     28.76586091	     17.13488921	      1.53814703	      0.00000000	     34.32000000
      6.45000000	      1.48733329	     -5.73130235	    -10.15746164	      0.00000000	      0.00000000	      0.00000000	    -24.95329994	     -3.40715009	    -12.24602717	     -5.33718890	     20.43703773	      3.25289802	     27.29058283	     16.58154056	      2.23485457	      0.00000000	     34.32000000
      6.46000000	      1.33321690	     -5.95241121	    -10.04403350	      0.00000000	      0.00000000	      0.00000000	    -24.57430885	     -3.64070881	    -11.75395004	     -5.41069237	     20.09771184	      3.42841291	     24.74650143	     15.52063445	     12.97015071	      0.00000000	     34.32000000
      6.47000000	      1.40146885	     -5.95046940	    -10.16297035	      0.00000000	      0.00000000	      0.00000000	    -24.68430110	     -3.61701147	    -11.88610384	     -5.42234788	     20.19536394	      3.39451652	     24.07293670	     15.16766602	     12.19517137	      0.00000000	     34.32000000
      6.48000000	      1.44889189	     -6.03150909	    -10.29348648	      0.00000000	      0.00000000	      0.00000000	    -24.67629219	     -3.59116480	    -11.90993236	     -5.39130919	     20.14745828	      3.39641138	     24.02893259	     15.09006874	     12.19951742	      0.00000000	     34.32000000
      6.49000000	      1.47992063	     -5.70542120	    -10.24548119	      0.00000000	      0.00000000	      0.00000000	    -24.94666836	     -3.50512524	    -12.38019575	     -5.34952044	     20.17309014	      3.35209793	     22.10265988	     14.80125836	     12.17682508	      0.00000000	     34.32000000
      6.50000000	      1.42900316	     -5.69396439	    -10.25462293	      0.00000000	      0.00000000	      0.00000000	    -24.86055507	     -3.68337997	    -12.38125645	     -5.40816311	     19.87074716	      3.49183166	     19.99107072	     14.96056182	     12.73195882	      0.00000000	     34.32000000
      6.51000000	      1.41540534	     -5.68870107	    -10.23344765	      0.00000000	      0.00000000	      0.00000000	    -24.82354412	     -3.80972432	    -12.40315918	     -5.45828202	     19.68714538	      3.58279902	     18.01977795	     14.95463424	     13.34700060	      0.00000000	     34.32000000
      6.52000000	      1.36248028	     -5.70557060	    -10.20700615	      0.00000000	      0.00000000	      0.00000000	    -24.77420384	     -3.89432549	    -12.36289700	     -5.49489785	     19.58404147	      3.63975774	     16.30502415	     14.78241777	     14.05274207	      0.00000000	     34.32000000
      6.53000000	      1.30626152	     -5.69309248	    -10.17093076	      0.00000000	      0.00000000	      0.00000000	    -24.76839810	     -3.86307625	    -12.38903548	     -5.46076884	     19.54040931	      3.63911978	     14.97354039	     14.49564877	     14.69288604	      0.00000000	     34.32000000
      6.54000000	      1.27672278	     -5.63873561	    -10.14226166	      0.00000000	      0.00000000	      0.00000000	    -24.83295396	     -3.73425629	    -12.54100858	     -5.36488168	     19.52836825	      3.59384538	     13.83932593	     14.14341662	     15.33210482	      0.00000000	     34.32000000
      6.55000000	      1.26687325	     -5.56267114	    -10.13287254	      0.00000000	      0.00000000	      0.00000000	    -24.92258632	     -3.58767664	    -12.75062108	     -5.25368803	     19.50126491	      3.54557310	     12.62301055	     13.73498356	     16.09792439	      0.00000000	     34.32000000
      6.56000000	      1.26322702	     -5.47152145	    -10.14363349	      0.00000000	      0.00000000	      0.00000000	    -25.00651845	     -3.44014924	    -12.95378734	     -5.14046212	     19.46996322	      3.49875330	     11.27893001	     13.25142079	     16.87844070	      0.00000000	     34.32000000
      6.57000000	      1.34881735	     -5.56741196	    -10.38052574	      0.00000000	      0.00000000	      0.00000000	    -24.97277428	     -3.37541791	    -12.98100325	     -5.06464835	     19.36405991	      3.50288576	     11.24563475	     13.08819508	     16.89769209	      0.00000000	     34.32000000
      6.58000000	      1.33070946	     -5.62276326	     -9.99434904	      0.00000000	      0.00000000	      0.00000000	    -24.70031429	     -3.04589711	    -12.49588562	     -4.83793891	     19.52863695	      3.35785592	      5.89165218	     11.25804129	     30.75312063	      0.00000000	     34.32000000
      6.59000000	      1.46558796	     -5.73227721	    -10.16722022	      0.00000000	      0.00000000	      0.00000000	    -24.68802256	     -3.03031723	    -12.53019039	     -4.80660223	     19.44887515	      3.37307991	      5.85024042	     11.18526527	     30.75028000	      0.00000000	     34.32000000
      6.60000000	      1.40858947	     -5.77378860	    -10.06578074	      0.00000000	      0.00000000	      0.00000000	    -24.48760231	     -3.11032459	    -12.16664443	     -4.85322625	     19.44441786	      3.40580138	      1.33128972	     10.71871219	     34.64614666	      0.00000000	     34.32000000
      6.61000000	      1.34974460	     -5.76437076	    -10.21940424	      0.00000000	      0.00000000	      0.00000000	    -24.52553312	     -3.37141962	    -12.43045778	     -4.95326019	     19.02510053	      3.59698971	      1.70299757	     11.24006237	     31.13998635	      0.00000000	     34.32000000
